#!OML:ASF I:\Actors\actors\Patient Classification 2\Patient 1\Session 1\actor1.ASF
:FULLY-SPECIFIED
:DEGREES
133
root -0.560369 18.5787 6.08218 2.92832 -0.99977 -5.66262
lowerback 13.1597 1.37423 -1.06666
upperback -1.33653 1.65228 -0.0707043
thorax -8.86532 0.846639 0.187061
lowerneck -15.9423 -2.42416 -2.19427
upperneck 24.7896 -5.05492 8.11583
head 10.9161 -1.53377 2.59336
rclavicle 3.06128e-014 -3.97569e-015
rhumerus -93.183 15.8992 -106.185
rradius 105.852
rwrist -1.99062
rhand -17.794 -37.3406
rfingers 7.12502
rthumb 8.46918 -67.1508
lclavicle 3.06128e-014 -3.97569e-015
lhumerus -90.8244 -22.9435 114.438
lradius 107.324
lwrist 27.9446
lhand -31.4721 -49.7444
lfingers 7.12502
lthumb -4.73898 -19.8174
rfemur 6.30417 -2.35624 18.8509
rtibia 4.77083e-015
rfoot -14.4387 -10.3587
rtoes -11.6121
lfemur -10.6664 0.132587 -8.04734
ltibia 30.0224
lfoot -21.6656 6.24192
ltoes -57.854
134
root -0.523703 18.5806 6.09799 2.76678 -1.20009 -5.77963
lowerback 13.1701 1.44892 -1.08668
upperback -1.27725 1.74814 -0.074967
thorax -8.80872 0.893433 0.174723
lowerneck -15.973 -2.44533 -2.29038
upperneck 25.0181 -5.10017 8.1982
head 11.0154 -1.54747 2.6383
rclavicle 2.29596e-014 9.54166e-015
rhumerus -93.1943 15.6593 -106.198
rradius 105.839
rwrist -2.03091
rhand -17.9403 -37.5337
rfingers 7.12502
rthumb 8.32791 -67.3495
lclavicle 2.29596e-014 9.54166e-015
lhumerus -90.8645 -22.8973 114.467
lradius 107.324
lwrist 27.7944
lhand -31.5175 -49.6355
lfingers 7.12502
lthumb -4.78283 -19.7095
rfemur 6.50639 -2.14311 18.8658
rtibia 7.95139e-015
rfoot -14.3572 -10.3869
rtoes -12.1015
lfemur -10.3653 0.388414 -8.03261
ltibia 30.0137
lfoot -21.7655 6.14645
ltoes -57.8248
135
root -0.497338 18.587 6.08894 2.82768 -0.865793 -5.84377
lowerback 13.3294 1.34467 -1.09065
upperback -1.3525 1.61082 -0.0239401
thorax -8.98175 0.829088 0.254992
lowerneck -16.03 -2.5248 -2.36533
upperneck 25.2288 -5.21126 8.20036
head 11.1149 -1.59856 2.64019
rclavicle 3.8763e-015 4.77083e-015
rhumerus -93.1904 15.5247 -106.138
rradius 105.797
rwrist -2.01575
rhand -17.9542 -37.5208
rfingers 7.12502
rthumb 8.3145 -67.3372
lclavicle 3.8763e-015 4.77083e-015
lhumerus -90.8924 -22.8174 114.495
lradius 107.675
lwrist 27.5163
lhand -32.2486 -48.7368
lfingers 7.12502
lthumb -5.48875 -18.8279
rfemur 6.45923 -2.47165 18.8843
rtibia -6.36111e-015
rfoot -14.2712 -10.4403
rtoes -12.0972
lfemur -10.5448 0.311867 -8.01389
ltibia 29.9686
lfoot -21.6293 5.98086
ltoes -57.8167
136
root -0.470271 18.5935 6.08849 2.88252 -0.730017 -5.85013
lowerback 13.3323 1.29032 -1.0551
upperback -1.38544 1.54919 0.0321056
thorax -9.01898 0.799421 0.307252
lowerneck -16.1262 -2.56437 -2.38916
upperneck 25.4423 -5.25988 8.13171
head 11.2159 -1.62386 2.61608
rclavicle -2.5345e-014 3.97569e-015
rhumerus -93.1774 15.5176 -106.063
rradius 105.753
rwrist -2.01548
rhand -17.9427 -37.2655
rfingers 7.12502
rthumb 8.32566 -67.0814
lclavicle -2.5345e-014 3.97569e-015
lhumerus -90.907 -22.7322 114.528
lradius 107.763
lwrist 27.2714
lhand -32.5321 -48.4902
lfingers 7.12502
lthumb -5.76252 -18.5885
rfemur 6.42486 -2.60356 18.8114
rtibia 1.59028e-014
rfoot -14.2477 -10.407
rtoes -11.3615
lfemur -10.5908 0.233351 -8.09249
ltibia 29.8476
lfoot -21.5644 5.97069
ltoes -57.8126
137
root -0.447335 18.6003 6.0882 2.95301 -0.580093 -5.77849
lowerback 13.2926 1.22057 -1.01468
upperback -1.41321 1.46915 0.0966464
thorax -9.0258 0.760903 0.37073
lowerneck -16.1604 -2.59642 -2.30534
upperneck 25.6032 -5.29557 7.96327
head 11.2779 -1.6478 2.53743
rclavicle 5.46658e-015 -8.74653e-015
rhumerus -93.1703 15.5837 -105.985
rradius 105.784
rwrist -2.08213
rhand -17.933 -37.1446
rfingers 7.12502
rthumb 8.33501 -66.9601
lclavicle 5.46658e-015 -8.74653e-015
lhumerus -90.9139 -22.6326 114.538
lradius 107.608
lwrist 27.205
lhand -32.2117 -48.9043
lfingers 7.12502
lthumb -5.45312 -18.9945
rfemur 6.3676 -2.75356 18.653
rtibia 3.18055e-015
rfoot -14.1831 -10.3549
rtoes -11.0482
lfemur -10.6486 0.11661 -8.2468
ltibia 29.7115
lfoot -21.516 5.90882
ltoes -57.7087
